<svg xmlns="http://www.w3.org/2000/svg" viewBox="0 0 2000 1000" fill="#EAEAEA" stroke="none">
  <!-- Greenland -->
  <path d="M590,65 L660,50 L710,65 L720,100 L700,135 L655,148 L610,140 L578,112 Z"/>
  <!-- North America -->
  <path d="M67,144 L105,115 L222,100 L335,95 L500,94 L600,130 L697,240 L680,300 L620,350 L550,360 L500,400 L460,440 L400,450 L350,430 L310,380 L250,300 L150,220 L90,180 Z"/>
  <!-- Central America -->
  <path d="M460,440 L500,440 L540,455 L555,480 L535,500 L505,500 L478,475 Z"/>
  <!-- South America -->
  <path d="M540,460 L610,448 L670,460 L710,500 L745,565 L755,645 L735,725 L695,762 L645,772 L600,748 L568,700 L548,622 L532,540 L528,480 Z"/>
  <!-- Iceland -->
  <path d="M810,155 L840,145 L860,158 L855,178 L832,185 L812,175 Z"/>
  <!-- UK + Ireland -->
  <path d="M940,185 L965,172 L978,188 L970,210 L950,215 L935,202 Z"/>
  <!-- Europe mainland -->
  <path d="M955,200 L1010,185 L1070,180 L1120,190 L1160,205 L1175,240 L1155,275 L1105,295 L1050,300 L990,290 L950,265 L940,235 Z"/>
  <!-- Scandinavia -->
  <path d="M1030,100 L1070,85 L1110,90 L1135,115 L1125,155 L1090,175 L1050,172 L1020,148 L1015,120 Z"/>
  <!-- Africa -->
  <path d="M965,295 L1065,278 L1155,285 L1215,318 L1245,385 L1255,462 L1242,548 L1202,625 L1152,668 L1090,682 L1028,660 L982,608 L958,532 L948,438 L958,352 Z"/>
  <!-- Madagascar -->
  <path d="M1258,560 L1278,545 L1292,568 L1287,612 L1266,630 L1248,606 Z"/>
  <!-- Arabian Peninsula -->
  <path d="M1162,258 L1232,248 L1295,262 L1335,308 L1345,372 L1322,418 L1278,438 L1242,422 L1212,378 L1196,312 Z"/>
  <!-- Russia / North Asia -->
  <path d="M1178,120 L1300,95 L1500,67 L1700,62 L1865,80 L1922,118 L1900,168 L1800,198 L1648,212 L1498,218 L1348,212 L1210,202 L1098,192 L1038,172 L1010,140 Z"/>
  <!-- Central Asia / China -->
  <path d="M1255,250 L1390,208 L1490,212 L1565,232 L1608,272 L1585,315 L1535,335 L1452,332 L1372,312 L1292,282 L1258,252 Z"/>
  <!-- Indian subcontinent -->
  <path d="M1352,298 L1432,292 L1498,318 L1522,382 L1512,448 L1480,492 L1442,502 L1402,478 L1370,422 L1350,358 Z"/>
  <!-- SE Asia / Indochina -->
  <path d="M1562,282 L1642,270 L1712,280 L1752,312 L1750,358 L1718,388 L1668,395 L1622,375 L1588,338 Z"/>
  <!-- Malaysia / Borneo -->
  <path d="M1655,418 L1738,402 L1808,410 L1842,435 L1828,458 L1780,465 L1722,452 L1680,435 Z"/>
  <!-- Japan -->
  <path d="M1788,238 L1815,228 L1828,245 L1818,268 L1792,270 Z"/>
  <!-- Philippines -->
  <path d="M1762,348 L1788,335 L1808,352 L1800,378 L1778,382 L1758,365 Z"/>
  <!-- Australia -->
  <path d="M1635,562 L1730,537 L1808,547 L1858,592 L1878,662 L1862,742 L1822,780 L1758,792 L1688,770 L1628,720 L1592,650 L1582,592 Z"/>
  <!-- New Zealand -->
  <path d="M1908,732 L1928,714 L1940,735 L1930,760 L1910,764 Z"/>
</svg>
